<svg xmlns="http://www.w3.org/2000/svg" xml:space="preserve" width="574.20001" height="181.35001" x="0px" y="0px" viewBox="0 0 574.20001 181.35"><g fill="#007cff" fill-rule="evenodd" clip-rule="evenodd"><path d="M149.974 162.852V77.768H76.742l5.132 32.143h30.343v31.121c-7.071 3.851-13.935 5.611-23.563 5.611-30.152 0-45.315-23.086-45.315-55.966 0-32.698 14.651-54.979 44.826-54.979 18.012 0 33.437 6.582 46.586 14.939l5.84-37.725C126.649 5.044 108.67 0 87.138 0 33.174 0 0 36.68 0 90.911c0 53.972 30.66 90.439 86.129 90.439 24.068 0 45.604-6.574 63.845-18.498zM292.385 125.354c0-27.847-15.163-41.018-53.147-54.964-21.807-8.335-26.646-12.645-26.646-21.565 0-8.097 6.345-13.587 19.552-13.587 13.38 0 29.864 5.019 45.556 14.122l6.589-36.447C269.058 5.571 254.4 1.257 231.597 1.257c-33.418 0-59.753 17.942-59.753 51.66 0 28.863 15.176 40.289 50.136 53.687 24.586 9.402 29.634 13.982 29.634 23.83 0 10.381-8.609 15.707-21.042 15.707-17.46 0-37.44-6.598-55.452-16.189l-6.323 36.957c17.745 8.095 37.494 13.129 61.014 13.129 34.729-.002 62.574-16.681 62.574-54.684z"/></g><path fill="#00d4ea" d="M380.738 117.151c20.166-13.259 47.554-30.507 47.554-63.344 0-36.055-30.548-52.474-58.929-52.474-42.341 0-59.414 33.659-61.817 38.912l32.67 15.286c2.037-3.646 11.126-18.187 26.321-18.187 9.818 0 19.398 8.062 19.398 20.597 0 10.096-11.374 17.715-25.535 27.366-22.446 15.297-50.375 34.328-50.375 73.447 0 5.129.578 10.826 1.819 17.891h116.487V141.61h-71.853c0-7.678 11.14-15.838 24.26-24.459z"/><path fill="#fff" d="M519.229 89.698c-9.252 0-16.777-7.524-16.777-16.78 0-9.249 7.525-16.773 16.777-16.773s16.78 7.524 16.78 16.773c0 9.256-7.528 16.78-16.78 16.78z"/><path fill="#00d4ea" d="M529.448 54.581c-2.246-.731-6.213-1.812-10.22-1.812-11.13 0-20.151 9.022-20.151 20.148 0 7.568 4.011 14.034 10.34 17.598 2.787 1.571 9.874 3.704 11.868 4.77 8.47 4.529 14.23 13.457 14.23 23.735 0 14.858-12.046 26.913-26.909 26.913-14.095 0-25.656-10.849-26.807-24.648l-36.055 7.839c5.877 29.77 32.117 52.226 63.614 52.226 35.814 0 64.85-29.031 64.85-64.85.001-28.811-18.767-53.467-44.76-61.919zm-10.219 31.742c-7.39 0-13.401-6.012-13.401-13.405 0-7.385 6.012-13.398 13.401-13.398 7.394 0 13.404 6.013 13.404 13.398 0 7.392-6.011 13.405-13.404 13.405z"/><path fill="#00d4ea" d="m457.002 3.743-7.104 80.951h36.271l4.625-45.998h41.658c24.641 0 33.6-19.98 33.6-34.953z"/></svg>